<?xml version="1.0" encoding="UTF-8" standalone="no"?>
<!-- Created with Inkscape (http://www.inkscape.org/) -->

<svg
   xmlns:dc="http://purl.org/dc/elements/1.1/"
   xmlns:cc="http://creativecommons.org/ns#"
   xmlns:rdf="http://www.w3.org/1999/02/22-rdf-syntax-ns#"
   xmlns:svg="http://www.w3.org/2000/svg"
   xmlns="http://www.w3.org/2000/svg"
   xmlns:sodipodi="http://sodipodi.sourceforge.net/DTD/sodipodi-0.dtd"
   xmlns:inkscape="http://www.inkscape.org/namespaces/inkscape"
   width="186.86104mm"
   height="300.5965mm"
   viewBox="0 0 186.86104 300.5965"
   version="1.1"
   id="svg8"
   inkscape:version="0.92.2 (5c3e80d, 2017-08-06)"
   sodipodi:docname="puzzle_piece_bg.svg"
   inkscape:export-filename="C:\Users\Callen\Desktop\Tiny Pieces- BG.png"
   inkscape:export-xdpi="96"
   inkscape:export-ydpi="96">
  <defs
     id="defs2" />
  <sodipodi:namedview
     id="base"
     pagecolor="#ffffff"
     bordercolor="#666666"
     borderopacity="1.0"
     inkscape:pageopacity="0.0"
     inkscape:pageshadow="2"
     inkscape:zoom="0.17401456"
     inkscape:cx="879.46187"
     inkscape:cy="523.68718"
     inkscape:document-units="mm"
     inkscape:current-layer="layer1"
     showgrid="false"
     inkscape:object-paths="true"
     inkscape:snap-intersection-paths="true"
     inkscape:snap-smooth-nodes="true"
     inkscape:snap-object-midpoints="true"
     inkscape:pagecheckerboard="false"
     showborder="true"
     inkscape:showpageshadow="true"
     borderlayer="true"
     inkscape:window-width="1920"
     inkscape:window-height="1017"
     inkscape:window-x="1912"
     inkscape:window-y="-8"
     inkscape:window-maximized="1"
     fit-margin-top="0"
     fit-margin-left="0"
     fit-margin-right="0"
     fit-margin-bottom="0" />
  <metadata
     id="metadata5">
    <rdf:RDF>
      <cc:Work
         rdf:about="">
        <dc:format>image/svg+xml</dc:format>
        <dc:type
           rdf:resource="http://purl.org/dc/dcmitype/StillImage" />
        <dc:title></dc:title>
      </cc:Work>
    </rdf:RDF>
  </metadata>
  <g
     inkscape:label="Layer 1"
     inkscape:groupmode="layer"
     id="layer1"
     transform="translate(-765.30963,425.77523)">
    <path
       style="opacity:1;fill:none;fill-opacity:1;fill-rule:nonzero;stroke:#d1c8b7;stroke-width:2.71939135;stroke-linecap:butt;stroke-linejoin:round;stroke-miterlimit:4;stroke-dasharray:none;stroke-opacity:1;paint-order:normal"
       d="m 858.74303,-126.53844 c 12.4554,0 22.5523,-10.09769 22.5522,-22.553 0,-8.2187 -6.6969,-15.03739 -11.673,-19.75079 -3.5248,-3.3388 0,-14.5657 0,-14.5657 h 69.78284 c 6.2414,-0.1518 11.1359,-5.08 11.4059,-11.2373 v -69.9513 c 0,0 -11.2268,-3.525 -14.5656,0 -4.7134,4.976 -11.5321,11.6728 -19.7509,11.6728 -12.4553,2e-4 -22.5527,-10.0967 -22.5529,-22.552 -2e-4,-12.4558 10.0972,-22.5532 22.5529,-22.553 8.5548,0 14.6411,6.7888 20.1813,12.5072 3.2786,3.384 14.1352,0 14.1352,0 v -70.4214 c -0.1267,-6.6311 -3.3771,-11.6032 -11.1083,-11.6032 h -70.91704 c 0,0 -3.3841,-10.8567 0,-14.1352 5.7184,-5.5402 12.5032,-11.6265 12.5072,-20.1812 2e-4,-12.4558 -10.0973,-22.5531 -22.553,-22.553 -12.4554,2.9e-4 -22.5523,10.0975 -22.5521,22.553 0,8.2187 6.6968,15.0374 11.673,19.7508 3.5249,3.3388 0,14.5656 0,14.5656 h -69.7534 c -7.3155,0 -11.5621,5.2185 -11.4354,11.1568 v 70.0319 c 0,0 11.2269,3.525 14.5657,0 4.7134,-4.976 11.532,-11.6729 19.7508,-11.6729 12.4554,-2e-4 22.5527,10.0968 22.553,22.5521 10e-5,12.4558 -10.0973,22.5531 -22.553,22.553 -8.5547,0 -14.6411,-6.7888 -20.1813,-12.5073 -3.2785,-3.3841 -14.1352,0 -14.1352,0 v 70.3409 c 0.079,6.9868 5.0588,11.5384 11.4354,11.6837 h 70.59 c 0,0 3.3841,10.8567 0,14.1352 -5.7184,5.5402 -12.5032,11.62659 -12.5072,20.18129 -2e-4,12.45581 10.0972,22.55311 22.5529,22.553 z"
       id="rect4535-4-66-44-2-4-8"
       inkscape:connector-curvature="0"
       sodipodi:nodetypes="ccccccccccccccccccccccccccccccccccccc" />
  </g>
</svg>
